<?xml version="1.0" encoding="utf-8"?>
<!-- Generator: Adobe Illustrator 25.2.3, SVG Export Plug-In . SVG Version: 6.00 Build 0)  -->
<svg version="1.1" id="Capa_1" xmlns="http://www.w3.org/2000/svg" xmlns:xlink="http://www.w3.org/1999/xlink" x="0px" y="0px"
	 viewBox="0 0 150 50" style="enable-background:new 0 0 150 50;" xml:space="preserve">
<style type="text/css">
	.st0{fill:#003B71;}
	.st1{fill:#72B5DF;}
</style>
<g>
	<polygon class="st0" points="38.74,36.95 45.18,19.5 53.29,30.41 61.46,19.48 67.89,36.95 63.82,36.95 60.23,28.38 53.29,36.94 
		46.41,28.34 43,36.95 	"/>
	<polygon class="st0" points="110.01,36.94 110.01,19.98 126.27,19.98 126.27,23.56 114.07,23.56 114.07,26.42 124.06,26.42 
		124.06,30.1 114.08,30.1 114.08,33.31 126.26,33.31 126.26,36.94 	"/>
	<polygon class="st0" points="96.08,23.61 89.41,23.61 89.41,19.98 106.8,19.98 106.8,23.59 100.1,23.59 100.1,36.93 96.08,36.93 	
		"/>
	<path class="st0" d="M140.44,33.31c-0.73,0.01-1.47-0.03-2.22-0.12c-1.35-0.16-2.63-0.57-3.77-1.44c-1.65-1.26-2.24-3.48-1.39-5.41
		c0.63-1.44,1.75-2.23,3.05-2.7c1.35-0.48,2.59-0.67,3.93-0.66v0l6.93,0l0-3.61l-6.97,0v0.01c-0.72,0-1.45,0.03-2.18,0.11
		c-2.18,0.23-4.25,0.86-6.08,2.27c-1.73,1.34-2.85,3.15-3.07,5.53c-0.29,3.14,0.85,5.57,3.15,7.32c1.6,1.22,3.4,1.81,5.29,2.1
		c0.96,0.15,1.92,0.21,2.88,0.21v0.01H147v-3.63H140.44z"/>
	<path class="st0" d="M80.48,19.62L69.8,36.94h4.5l1.51-2.66h9.29l1.53,2.66h4.53L80.48,19.62z M78,30.62
		c0.84-1.42,1.65-2.78,2.49-4.2c0.83,1.42,1.63,2.78,2.46,4.2H78z"/>
	<polygon class="st1" points="27.82,42.55 38.47,15.43 15.13,5.42 26.8,20.56 	"/>
	<polygon class="st1" points="25.55,21.03 21.61,15.99 3,10.41 19.51,24.36 26.66,41.91 	"/>
</g>
</svg>
